<?xml version="1.0" encoding="iso-8859-1"?>
<!-- Generator: Adobe Illustrator 19.0.0, SVG Export Plug-In . SVG Version: 6.00 Build 0)  -->
<svg version="1.1" id="Layer_1" xmlns="http://www.w3.org/2000/svg" xmlns:xlink="http://www.w3.org/1999/xlink" x="0px" y="0px"
	 viewBox="0 0 290.625 290.625" style="enable-background:new 0 0 290.625 290.625;" xml:space="preserve">
<g>
	<g>
		<g>
			<path d="M266.94,14.555C248.564,5.372,220.472,0.066,189.853,0c-0.155,0-0.305,0-0.464,0c-31.997,0-63.375,7.022-86.152,19.284
				C42.3,52.097,11.72,120.792,11.72,150.028c0,11.32,6.15,23.414,23.414,23.414c3.398,0,10.8-0.033,16.861-6.267l15.975,11.531
				v32.245c0,7.753,6.281,14.063,14.006,14.063c7.786,0,14.119-6.333,14.119-14.119v-11.878l4.688,3.389v50.738
				c0,7.622,6.441,14.053,14.063,14.053c7.622,0,14.063-4.697,14.063-14.072h-0.005c0-4.688,2.236-4.683,4.688-4.683
				s4.688,2.245,4.688,4.697c0,9.066,6.366,23.447,23.442,23.447c12.033,0,18.731-7.139,21.647-14.527l31.636,22.847
				c1.472,1.322,7.102,5.719,17.016,5.719c18.544,0,23.452-15.314,23.452-23.414V57.961c4.688,0.169,11.447-1.27,15.591-4.261
				c5.053-3.647,7.842-9.398,7.842-16.195C278.902,20.733,267.428,14.798,266.94,14.555z M86.72,210.895
				c0,2.616-2.128,4.744-4.744,4.744c-2.597,0-4.631-2.058-4.631-4.688v-25.477l9.375,6.773V210.895z M161.725,267.216
				c-11.541,0-14.067-10.153-14.067-14.067c0-7.627-6.441-14.067-14.063-14.067c-7.622,0-14.063,6.441-14.063,14.067
				c0,2.452-2.236,4.688-4.688,4.688c-2.452,0-4.688-2.236-4.688-4.688V209.18l65.212,47.1
				C174.314,260.873,170.87,267.216,161.725,267.216z M246.094,267.206c0,1.439-0.398,14.044-14.072,14.044
				c-7.125,0-10.641-3.211-10.73-3.291L57.123,159.323c0.431-0.984,0.839-2.025,1.214-3.15
				c15.417-46.256,35.602-75.23,63.516-91.177c21.933-12.534,42.9-18.122,67.992-18.122c17.916,0,41.119,4.589,54.788,9.117
				c0.492,0.164,1.462,0.272,1.462,0.412V267.206z M265.586,46.092c-4.078,2.948-10.969,3.333-17.995,1.003
				c-13.936-4.617-37.955-9.595-57.745-9.595c-26.452,0-49.533,6.15-72.642,19.355c-30.037,17.161-51.567,47.775-67.763,96.352
				c-3.619,10.861-9.797,10.861-14.306,10.861c-11.602,0-14.039-7.636-14.039-14.039c0-22.327,24.914-89.278,86.592-122.484
				c21.141-11.391,51.666-18.169,81.727-18.169c0.141,0,0.281,0,0.422,0c29.212,0.061,55.791,5.006,72.853,13.538
				c0.277,0.15,6.844,3.811,6.844,14.587C269.533,41.311,268.206,44.203,265.586,46.092z"/>
			
				<rect x="182.815" y="212.71" transform="matrix(-0.7071 -0.7071 0.7071 -0.7071 162.6456 512.6786)" width="9.375" height="19.889"/>
			
				<rect x="145.317" y="126.274" transform="matrix(0.9702 0.2422 -0.2422 0.9702 37.3909 -32.2838)" width="9.375" height="19.33"/>
			<rect x="86.72" y="126.563" width="18.75" height="9.375"/>
			
				<rect x="215.642" y="86.14" transform="matrix(0.7071 0.7071 -0.7071 0.7071 132.4738 -127.6539)" width="9.375" height="19.889"/>
			
				<rect x="169.684" y="65.619" transform="matrix(0.8321 0.5546 -0.5546 0.8321 68.8994 -86.9915)" width="16.903" height="9.375"/>
			
				<rect x="214.219" y="175.778" transform="matrix(-0.5548 -0.832 0.832 -0.5548 196.0638 465.8484)" width="16.908" height="9.375"/>
			<path d="M152.344,93.741c0-7.753-6.309-14.063-14.063-14.063c-7.753,0-14.063,6.309-14.063,14.063
				c0,7.754,6.309,14.063,14.063,14.063C146.035,107.803,152.344,101.494,152.344,93.741z M138.282,98.428
				c-2.587,0-4.688-2.1-4.688-4.688s2.105-4.688,4.688-4.688s4.688,2.1,4.688,4.688S140.865,98.428,138.282,98.428z"/>
			<path d="M110.152,150c-7.753,0-14.063,6.314-14.063,14.067c0,7.753,6.309,14.063,14.063,14.063
				c7.754,0,14.063-6.309,14.063-14.063C124.216,156.313,117.905,150,110.152,150z M110.152,168.755c-2.588,0-4.688-2.1-4.688-4.688
				c0-2.588,2.105-4.692,4.688-4.692s4.688,2.105,4.688,4.692C114.84,166.654,112.735,168.755,110.152,168.755z"/>
			<path d="M194.542,112.495c-10.341,0-18.75,8.414-18.75,18.755s8.409,18.75,18.75,18.75s18.755-8.409,18.755-18.75
				S204.883,112.495,194.542,112.495z M194.542,140.625c-5.17,0-9.375-4.205-9.375-9.375c0-5.175,4.205-9.38,9.375-9.38
				c5.175,0,9.38,4.205,9.38,9.38C203.922,136.42,199.712,140.625,194.542,140.625z"/>
			<path d="M222.652,220.313c-7.753,0-14.063,6.309-14.063,14.063c0,7.754,6.309,14.067,14.063,14.067
				c7.758,0,14.067-6.314,14.067-14.067C236.719,226.623,230.41,220.313,222.652,220.313z M222.652,239.067
				c-2.583,0-4.688-2.105-4.688-4.692c0-2.587,2.105-4.688,4.688-4.688c2.587,0,4.692,2.1,4.692,4.688
				S225.24,239.067,222.652,239.067z"/>
			<path d="M185.167,182.822c0-10.341-8.414-18.755-18.755-18.755s-18.755,8.414-18.755,18.755s8.414,18.75,18.755,18.75
				S185.167,193.163,185.167,182.822z M166.412,192.197c-5.175,0-9.38-4.205-9.38-9.375c0-5.175,4.205-9.38,9.38-9.38
				c5.175,0,9.38,4.205,9.38,9.38C175.792,187.988,171.582,192.197,166.412,192.197z"/>
		</g>
	</g>
</g>
<g>
</g>
<g>
</g>
<g>
</g>
<g>
</g>
<g>
</g>
<g>
</g>
<g>
</g>
<g>
</g>
<g>
</g>
<g>
</g>
<g>
</g>
<g>
</g>
<g>
</g>
<g>
</g>
<g>
</g>
</svg>
