<?xml version="1.0" encoding="iso-8859-1"?>
<!-- Generator: Adobe Illustrator 19.0.0, SVG Export Plug-In . SVG Version: 6.00 Build 0)  -->
<svg version="1.1" id="Capa_1" xmlns="http://www.w3.org/2000/svg" xmlns:xlink="http://www.w3.org/1999/xlink" x="0px" y="0px"
	 viewBox="0 0 503.372 503.372" style="enable-background:new 0 0 503.372 503.372;" xml:space="preserve">
<g>
	<path d="M477.791,73.421h-78.873C391.88,31.724,357.939,0,317.227,0c-26.606,0-50.332,13.543-65.541,34.567
		C236.474,13.543,212.751,0,186.142,0c-40.714,0-74.653,31.724-81.69,73.421H25.581c-9.671,0-17.511,7.841-17.511,17.511v88.734
		c0,9.673,7.839,17.511,17.511,17.511h22.587V485.86c0,9.673,7.841,17.511,17.511,17.511h371.455
		c9.671,0,17.511-7.838,17.511-17.511V197.175h23.146c9.673,0,17.511-7.839,17.511-17.511V90.932
		C495.302,81.259,487.464,73.421,477.791,73.421z M317.227,35.023c21.563,0,39.849,16.185,45.902,38.398h-91.803
		C277.378,51.207,295.664,35.023,317.227,35.023z M186.142,35.023c21.563,0,39.849,16.185,45.904,38.398h-91.805
		C146.295,51.207,164.581,35.023,186.142,35.023z M43.092,108.443h175.393v53.712H43.092V108.443z M83.191,202.028h135.295v266.319
		H83.191V202.028z M419.623,468.347h-137.97V202.028h137.97V468.347z M460.28,162.153H281.655v-53.709H460.28L460.28,162.153
		L460.28,162.153z"/>
</g>
<g>
</g>
<g>
</g>
<g>
</g>
<g>
</g>
<g>
</g>
<g>
</g>
<g>
</g>
<g>
</g>
<g>
</g>
<g>
</g>
<g>
</g>
<g>
</g>
<g>
</g>
<g>
</g>
<g>
</g>
</svg>
