<?xml version="1.0" encoding="iso-8859-1"?>
<!-- Generator: Adobe Illustrator 18.0.0, SVG Export Plug-In . SVG Version: 6.00 Build 0)  -->
<!DOCTYPE svg PUBLIC "-//W3C//DTD SVG 1.1//EN" "http://www.w3.org/Graphics/SVG/1.1/DTD/svg11.dtd">
<svg version="1.1" id="Capa_1" xmlns="http://www.w3.org/2000/svg" xmlns:xlink="http://www.w3.org/1999/xlink" x="0px" y="0px"
	 viewBox="0 0 367.173 367.173" style="enable-background:new 0 0 367.173 367.173;" xml:space="preserve">
<path d="M360.586,107.303c3.313,0,6-2.687,6-6V71.17c0-3.313-2.687-6-6-6h-64c-3.313,0-6,2.687-6,6v30.133c0,3.313,2.687,6,6,6h26
	v6.646c-0.077-0.001-0.153-0.006-0.23-0.006H220.493c15.776-11.454,26.063-30.03,26.063-50.973c0-34.722-28.248-62.97-62.969-62.97
	c-34.722,0-62.97,28.248-62.97,62.97c0,20.94,10.284,39.514,26.057,50.969h-64.14c-0.073,0-0.146,0.001-0.218,0.004H44.586v-6.64h26
	c3.313,0,6-2.687,6-6V71.17c0-3.313-2.687-6-6-6h-64c-3.313,0-6,2.687-6,6v30.133c0,3.313,2.687,6,6,6h26v9.292
	c-9.371,4.44-15.87,13.988-15.87,25.028s6.499,20.588,15.87,25.028v8.652h-26c-3.313,0-6,2.687-6,6v30.133c0,3.313,2.687,6,6,6h64
	c3.313,0,6-2.687,6-6v-30.133c0-3.313-2.687-6-6-6h-26v-6h58.029c8.646,0,15.681,7.034,15.681,15.68v154.601
	c0,15.213,12.565,27.59,28.01,27.59c7.367,0,14.297-2.872,19.512-8.088c5.209-5.209,8.078-12.135,8.078-19.502v-69.317
	c0-5.562,4.315-10.116,9.621-10.152c0.022,0,0.046,0,0.069,0c2.596,0,5.028,1.004,6.849,2.823c1.832,1.839,2.841,4.277,2.841,6.866
	v69.295c0,15.292,12.219,27.886,27.238,28.073c0.119,0.001,0.238,0.002,0.356,0.002c7.368,0,14.283-2.864,19.509-8.088
	c5.208-5.209,8.076-12.136,8.076-19.502V184.982c0-8.646,7.034-15.68,15.681-15.68h58.22c0.077,0,0.153-0.005,0.23-0.006v6.006h-26
	c-3.313,0-6,2.687-6,6v30.133c0,3.313,2.687,6,6,6h64c3.313,0,6-2.687,6-6v-30.133c0-3.313-2.687-6-6-6h-26v-8.857
	c9.144-4.524,15.449-13.949,15.449-24.823s-6.305-20.299-15.449-24.823v-9.497H360.586z M12.586,77.17h52v18.133h-52V77.17z
	 M64.586,205.436h-52v-18.133h52V205.436z M354.586,205.436h-52v-18.133h52V205.436z M132.617,62.97
	c0-28.104,22.865-50.97,50.97-50.97s50.969,22.865,50.969,50.97s-22.864,50.969-50.969,50.969S132.617,91.074,132.617,62.97z
	 M322.356,157.303h-58.22c-15.263,0-27.681,12.417-27.681,27.68v154.601c0,4.162-1.62,8.075-4.562,11.017
	c-3.002,3-7.007,4.634-11.229,4.571c-8.485-0.105-15.389-7.316-15.389-16.073v-69.295c0-5.785-2.251-11.231-6.348-15.344
	c-4.098-4.097-9.539-6.346-15.339-6.346c-0.052,0-0.104,0-0.155,0c-11.876,0.081-21.538,10.019-21.538,22.152v69.317
	c0,4.162-1.62,8.074-4.563,11.018c-2.949,2.948-6.865,4.572-11.027,4.572c-8.678,0-16.01-7.14-16.01-15.59V184.982
	c0-15.263-12.417-27.68-27.681-27.68h-58.22c-8.646,0-15.68-7.034-15.68-15.68c0-8.646,7.034-15.681,15.68-15.681h106.49
	c0.072,0,0.145-0.001,0.217-0.004h64.546c0.072,0.003,0.145,0.004,0.217,0.004h106.49c8.646,0,15.68,7.034,15.68,15.681
	C338.036,150.269,331.001,157.303,322.356,157.303z M302.586,77.17h52v18.133h-52V77.17z"/>
<g>
</g>
<g>
</g>
<g>
</g>
<g>
</g>
<g>
</g>
<g>
</g>
<g>
</g>
<g>
</g>
<g>
</g>
<g>
</g>
<g>
</g>
<g>
</g>
<g>
</g>
<g>
</g>
<g>
</g>
</svg>
