<?xml version="1.0" ?><svg width="512px" height="512px" viewBox="0 0 512 512" style="enable-background:new 0 0 512 512;" version="1.1" xml:space="preserve" xmlns="http://www.w3.org/2000/svg" xmlns:xlink="http://www.w3.org/1999/xlink"><style type="text/css">
	.st0{display:none;}
	.st1{fill:#474747;}
</style><g class="st0" id="Layer_1"/><g id="Layer_2"><g><path class="st1" d="M292.4,413.47c-0.24-3.86-3.58-6.76-7.43-6.54c-3.86,0.25-6.79,3.57-6.54,7.43c0.18,2.89,0.33,5.7,0.42,8.37    c-0.05,2.44-0.13,4.88-0.21,7.31c-0.3,8.35-0.82,16.6-1.55,24.58c-3.69,0.1-9.26,0.04-15.02-0.3c-0.14-0.01-0.28-0.01-0.41-0.01    h-33.77l1.54-22.98c0.15-2.27,0.31-4.64,0.48-7.09c0.01-0.09,0.01-0.17,0.01-0.26c0.17-5.16,0.41-10.67,0.73-16.8l0.01-0.12    c0.16-2.77,0.32-5.56,0.48-8.32c0.01-0.08,0.01-0.16,0.01-0.25c0.08-3,0.2-6.23,0.39-9.9c0-0.1,0.01-0.2,0.01-0.3    c0.02-2.69,0.11-5.5,0.27-8.33c0.01-0.23,0.01-0.46,0-0.69c-0.66-15.49,1.91-30.84,4.64-47.11c0.61-3.67,1.23-7.33,1.8-10.99    c0.15-0.96,0.31-1.96,0.46-2.99c1.09-7.23,2.23-16.1,2.57-25.02c0.12-1.62,0.28-3.32,0.44-5.06c0.34-3.69,0.69-7.51,0.8-11.45    c0.09-3.48-0.02-6.51-0.36-9.28c-0.01-0.11-0.03-0.23-0.05-0.34c-0.84-4.91-2.06-12-7.4-16.26c-0.73-0.58-1.52-1.11-2.41-1.57    c-2.86-1.67-5.82-3.43-8.82-5.24c-11.65-7.03-24.14-15.14-35.99-24.62c1.99-2.28,3.61-4.84,4.8-7.61    c11.59,6.74,24.42,13.6,38.8,18.17c1.95,0.62,4.06,0.36,5.8-0.71c1.74-1.07,2.92-2.85,3.24-4.86c2.53-16.01,4.35-32.43,5.69-46.03    c0.09-0.91,0.18-1.8,0.26-2.68c0.7-0.42,1.37-0.88,2.02-1.38c3.64,2.79,8.1,4.45,12.8,4.66c0.05,0.96,0.1,1.95,0.15,2.96    c0.15,3.22,0.26,6.45,0.38,9.71c0,0.19,0.01,0.39,0.01,0.58c0.13,12.73,1.94,25.61,3.7,38.07c0.61,4.32,1.24,8.78,1.79,13.15    c0.26,2.12,1.48,4,3.31,5.11c1.82,1.11,4.06,1.33,6.06,0.59c3.33-1.23,6.58-2.59,9.76-4.05c9.54-4.39,18.47-9.67,27.17-14.82    c3.34-1.97,6.74-3.98,10.18-5.95c1.06,2.59,2.55,4.98,4.4,7.08c-14.35,11.33-30.01,22.92-48.63,35.99    c-0.06,0.05-0.13,0.09-0.19,0.14c-5.14,3.87-8.3,6.55-8.43,6.66c-0.21,0.18-0.4,0.37-0.59,0.57c-0.05,0.05-0.1,0.11-0.14,0.17    c-0.13,0.15-0.26,0.31-0.38,0.47c-0.05,0.06-0.09,0.12-0.13,0.19c-0.12,0.17-0.23,0.35-0.33,0.52c-0.03,0.05-0.06,0.11-0.09,0.16    c-0.25,0.47-0.44,0.97-0.58,1.48c-0.02,0.07-0.03,0.15-0.05,0.23c-0.04,0.18-0.08,0.36-0.1,0.55c-0.01,0.09-0.03,0.18-0.04,0.27    c-0.02,0.19-0.03,0.39-0.04,0.58c0,0.07-0.01,0.14-0.01,0.21c0,0.26,0.02,0.53,0.05,0.79c0,0.01,0,0.03,0,0.04l0.09,0.73    c0.5,3.83,4.01,6.53,7.84,6.05c2.39-0.31,4.35-1.79,5.36-3.8c0.07-0.06,0.15-0.12,0.23-0.18c0.04-0.03,0.07-0.06,0.11-0.09    c0.11-0.09,0.22-0.18,0.33-0.27c0.1-0.08,0.21-0.17,0.32-0.25c0.08-0.06,0.15-0.12,0.23-0.19c0.15-0.12,0.3-0.24,0.46-0.36    c0.05-0.04,0.1-0.08,0.16-0.13c0.18-0.14,0.37-0.29,0.57-0.45c0.04-0.03,0.09-0.07,0.13-0.1c0.21-0.16,0.42-0.33,0.64-0.5    c0.04-0.03,0.08-0.06,0.12-0.1c0.24-0.18,0.48-0.37,0.74-0.57c0.02-0.02,0.05-0.04,0.07-0.06c0.56-0.43,1.16-0.89,1.79-1.36    c13.76-9.66,25.94-18.53,37.18-27.1c5.3-4.04,10.4-8.01,15.35-11.97c1.25-0.99,2.49-1.99,3.72-2.98c1.89-1.53,2.85-3.92,2.54-6.33    c-0.31-2.41-1.84-4.49-4.06-5.49c-3.96-1.79-6.51-5.76-6.51-10.11c0-0.21,0-0.42,0.02-0.63c0.25-2.56-0.92-5.05-3.06-6.49    c-2.13-1.44-4.88-1.59-7.16-0.39c-6.64,3.48-13.04,7.27-19.23,10.93c-8.93,5.28-17.48,10.34-26.48,14.42    c-0.2-1.45-0.4-2.88-0.61-4.31c-1.8-12.79-3.51-24.86-3.58-36.88c0-0.07,0-0.14,0-0.21c-0.12-3.34-0.24-6.66-0.39-9.96    c-0.18-4-0.4-7.54-0.66-10.84c-0.17-2.19-1.37-4.18-3.23-5.36c-1.86-1.18-4.16-1.42-6.22-0.64c-0.94,0.35-1.96,0.53-3.02,0.53    c-3.19,0-6.13-1.75-7.67-4.57c-1.23-2.24-3.58-3.64-6.14-3.64c0,0,0,0,0,0c0,0,0,0,0,0c-1.6,0-3.12,0.55-4.33,1.51    c-0.73,0.58-1.35,1.3-1.81,2.14c-1.04,1.91-2.74,3.35-4.78,4.07c-2.58,0.9-4.39,3.22-4.65,5.94c-1.17,12.29-2.75,27.81-4.98,43.43    c-13.26-5.22-25.4-12.44-36.31-18.93c-2.13-1.26-4.77-1.31-6.94-0.13c-2.17,1.19-3.56,3.43-3.64,5.91    c-0.18,5.28-3.02,10.02-7.61,12.68c-1.96,1.14-3.25,3.15-3.46,5.41c-0.03,0.28-0.04,0.56-0.03,0.84c0.05,1.96,0.93,3.82,2.43,5.11    c12.07,10.4,24.96,19.29,37.22,26.96c1.11,0.7,2.22,1.39,3.33,2.06c2.21,1.36,4.39,2.67,6.53,3.95s4.26,2.52,6.33,3.73    c0.13,0.08,0.26,0.15,0.4,0.22c1.24,0.62,2.09,5.38,2.47,7.61c0.24,2.04,0.32,4.36,0.24,7.06c-0.1,3.49-0.43,7.08-0.75,10.56    c-0.17,1.88-0.34,3.71-0.47,5.45c-0.01,0.08-0.01,0.17-0.01,0.25c-0.35,9.5-1.72,19.14-2.87,26.48    c-0.57,3.62-1.17,7.23-1.78,10.85c-2.7,16.15-5.5,32.84-4.83,49.67c-0.16,2.89-0.25,5.75-0.27,8.51    c-0.18,3.67-0.31,6.93-0.39,9.97c-0.17,2.74-0.32,5.51-0.48,8.26l-0.01,0.15c-0.33,6.21-0.57,11.77-0.74,16.99    c-0.17,2.42-0.33,4.76-0.47,7l-2.03,30.44c-0.13,1.93,0.55,3.83,1.87,5.25c1.32,1.42,3.17,2.22,5.11,2.22h41.04    c4.9,0.29,8.86,0.41,12.08,0.41c11.83,0,13.58-1.65,14.73-2.72c1.27-1.2,2.06-2.82,2.23-4.53c1.05-9.96,1.77-20.37,2.15-30.95    c0.09-2.58,0.16-5.14,0.22-7.71c0-0.13,0-0.27,0-0.4C292.75,419.57,292.6,416.56,292.4,413.47z"/><path class="st1" d="M277.81,396.85c0.26,0.38,0.55,0.74,0.87,1.06c0.32,0.32,0.68,0.61,1.07,0.87c0.38,0.25,0.78,0.47,1.2,0.64    c0.43,0.18,0.87,0.31,1.31,0.4c0.46,0.09,0.92,0.14,1.37,0.14c1.84,0,3.65-0.75,4.95-2.05c0.32-0.32,0.62-0.68,0.87-1.06    s0.47-0.79,0.65-1.21c0.17-0.43,0.31-0.87,0.4-1.31c0.09-0.45,0.13-0.91,0.13-1.37s-0.04-0.92-0.13-1.37    c-0.09-0.44-0.23-0.89-0.4-1.31c-0.18-0.42-0.4-0.83-0.65-1.21c-0.25-0.38-0.55-0.74-0.87-1.06c-0.32-0.32-0.68-0.62-1.06-0.87    c-0.38-0.25-0.79-0.47-1.21-0.65c-0.42-0.17-0.86-0.3-1.31-0.39c-0.9-0.19-1.83-0.19-2.74,0c-0.44,0.09-0.88,0.22-1.31,0.39    c-0.42,0.18-0.82,0.4-1.2,0.65c-0.39,0.25-0.75,0.55-1.07,0.87c-0.32,0.32-0.61,0.68-0.87,1.06c-0.25,0.38-0.47,0.79-0.64,1.21    c-0.18,0.42-0.31,0.87-0.4,1.31c-0.09,0.45-0.14,0.91-0.14,1.37s0.05,0.92,0.14,1.37c0.09,0.44,0.22,0.88,0.4,1.31    C277.34,396.06,277.56,396.47,277.81,396.85z"/><path class="st1" d="M404.88,165.35c0-22.98-18.22-41.79-40.97-42.75c-3.09-19.27-19.07-34.3-38.79-35.95    c-5-24.75-27.11-43.32-52.92-43.32c-5.54,0-10.98,0.83-16.2,2.47c-5.22-1.64-10.66-2.47-16.2-2.47    c-25.81,0-47.92,18.57-52.92,43.32c-19.72,1.65-35.7,16.67-38.79,35.95c-22.75,0.95-40.97,19.76-40.97,42.75    c0,6.08,1.29,12.06,3.76,17.54c-8,8.75-12.5,20.2-12.5,32.18c0,16.55,8.43,31.59,22.05,40.24c-2.27,4.51-3.48,9.53-3.48,14.67    c0,18.02,14.66,32.68,32.68,32.68c6.77,0,13.2-2.04,18.58-5.78c5.51,6.93,13.97,11.18,23.18,11.18c1.73,0,3.44-0.15,5.11-0.44    c0.06,0.17,0.13,0.34,0.2,0.51c1.42,3.6,5.48,5.37,9.08,3.94c3.6-1.42,5.36-5.48,3.94-9.08c-0.62-1.57-1-3.23-1.13-4.92    c-0.18-2.33-1.51-4.42-3.55-5.57c-2.04-1.14-4.52-1.2-6.6-0.14c-2.2,1.12-4.57,1.69-7.04,1.69c-6.71,0-12.65-4.27-14.8-10.63    c-0.83-2.45-2.93-4.24-5.47-4.67c-2.55-0.43-5.12,0.58-6.7,2.62c-3.57,4.62-8.96,7.27-14.79,7.27c-10.3,0-18.68-8.38-18.68-18.68    c0-4.65,1.72-9.1,4.84-12.55c1.53-1.69,2.14-4.02,1.64-6.24c-0.5-2.22-2.05-4.06-4.16-4.93c-12.7-5.23-20.9-17.47-20.9-31.19    c0-9.8,4.27-19.11,11.71-25.53c2.61-2.25,3.19-6.07,1.37-9c-2.84-4.55-4.33-9.81-4.33-15.2c0-15.87,12.91-28.78,28.78-28.78    c1.24,0,2.49,0.08,3.73,0.25c2,0.27,4.02-0.34,5.54-1.67c1.52-1.33,2.39-3.25,2.39-5.27c0-0.16,0-0.32-0.01-0.45    c0-15.95,12.98-28.92,28.93-28.92c0.63,0,1.29,0.02,2.03,0.07c3.83,0.25,7.13-2.62,7.43-6.44c1.62-20.64,19.13-36.8,39.86-36.8    c4.75,0,9.39,0.82,13.79,2.43c1.56,0.57,3.26,0.57,4.82,0c4.4-1.61,9.04-2.43,13.79-2.43c20.73,0,38.23,16.17,39.86,36.8    c0.3,3.82,3.62,6.68,7.43,6.44c0.73-0.05,1.4-0.07,2.03-0.07c15.95,0,28.93,12.97,28.93,28.9c-0.01,0.16-0.01,0.32-0.01,0.48    c0,2.02,0.87,3.94,2.39,5.27c1.52,1.33,3.54,1.94,5.54,1.67c1.24-0.17,2.49-0.25,3.73-0.25c15.87,0,28.78,12.91,28.78,28.78    c0,5.39-1.5,10.64-4.33,15.2c-1.82,2.93-1.24,6.75,1.37,9c7.44,6.42,11.71,15.72,11.71,25.53c0,13.72-8.2,25.96-20.9,31.19    c-2.11,0.87-3.66,2.71-4.16,4.93c-0.5,2.22,0.11,4.55,1.64,6.24c3.12,3.45,4.84,7.9,4.84,12.55c0,10.3-8.38,18.68-18.68,18.68    c-5.83,0-11.22-2.65-14.79-7.27c-1.58-2.04-4.15-3.05-6.7-2.62c-2.55,0.43-4.65,2.22-5.47,4.67c-2.15,6.36-8.09,10.63-14.8,10.63    c-2.47,0-4.84-0.57-7.04-1.69c-2.08-1.06-4.56-1.01-6.6,0.14s-3.37,3.23-3.55,5.57c-0.66,8.57-7.73,15.33-16.26,15.69    c-0.03-0.4-0.07-0.78-0.1-1.17c-0.05-0.63-0.1-1.25-0.15-1.87c-0.06-0.7-0.14-1.4-0.22-2.09c-0.07-0.6-0.14-1.21-0.22-1.8    c-0.04-0.3-0.07-0.6-0.11-0.89c-0.02-0.13-0.05-0.26-0.08-0.4c-0.08-0.56-0.15-1.14-0.24-1.69c-0.62-3.82-4.22-6.4-8.03-5.78    c-3.82,0.62-6.4,4.22-5.78,8.04c0.1,0.63,0.2,1.26,0.28,1.9c0.12,0.88,0.23,1.77,0.33,2.67c0,0.04,0.01,0.08,0.01,0.11    c0.1,0.92,0.18,1.87,0.25,2.83c0.01,0.08,0.01,0.16,0.02,0.23c0.07,0.95,0.13,1.91,0.17,2.9c0,0.1,0.01,0.2,0.01,0.31    c0.04,1,0.08,2.02,0.09,3.08c0,0,0,0,0,0c0.08,4.85-0.09,9.7-0.27,14.85c-0.07,2.02-0.14,4.05-0.2,6.12c0,0.06,0,0.13,0,0.19    c0,3.52,0.07,7,0.21,10.34c0.23,5.83,0.65,12.05,1.32,19.57c0.33,3.64,3.38,6.38,6.96,6.38c0.21,0,0.42-0.01,0.63-0.03    c3.85-0.34,6.69-3.75,6.35-7.6c-0.65-7.28-1.06-13.27-1.28-18.88c-0.13-3.13-0.2-6.39-0.2-9.68c0.06-2,0.13-3.97,0.19-5.92    c0.09-2.63,0.18-5.19,0.24-7.73c12.75-0.38,23.78-8.61,28.13-20.13c1.68,0.29,3.39,0.44,5.12,0.44c9.22,0,17.67-4.25,23.18-11.18    c5.38,3.74,11.81,5.78,18.58,5.78c18.02,0,32.68-14.66,32.68-32.68c0-5.14-1.21-10.16-3.48-14.67    c13.62-8.66,22.05-23.69,22.05-40.24c0-11.98-4.5-23.43-12.5-32.18C403.59,177.4,404.88,171.43,404.88,165.35z"/><path class="st1" d="M256,125.21c6.97,0,13.52-2.72,18.45-7.65c2.73-2.73,2.73-7.17,0-9.9c-2.73-2.73-7.17-2.73-9.9,0    c-4.71,4.71-12.39,4.71-17.1,0c-2.73-2.73-7.17-2.73-9.9,0c-2.73,2.73-2.73,7.17,0,9.9C242.48,122.49,249.03,125.21,256,125.21z"/><path class="st1" d="M210.16,146.96c2.73-2.73,2.73-7.17,0-9.9c-2.73-2.73-7.17-2.73-9.9,0c-4.71,4.71-12.39,4.71-17.1,0    c-2.73-2.73-7.17-2.73-9.9,0c-2.73,2.73-2.73,7.17,0,9.9c5.09,5.09,11.77,7.63,18.45,7.63S205.07,152.05,210.16,146.96z"/><path class="st1" d="M325.66,178.08c6.68,0,13.36-2.54,18.45-7.63c2.73-2.73,2.73-7.17,0-9.9c-2.73-2.73-7.17-2.73-9.9,0    c-4.71,4.72-12.39,4.71-17.1,0c-2.73-2.73-7.17-2.73-9.9,0c-2.73,2.73-2.73,7.17,0,9.9C312.3,175.54,318.98,178.08,325.66,178.08z    "/><path class="st1" d="M367.53,222.68c6.97,0,13.52-2.72,18.45-7.65c2.73-2.73,2.73-7.17,0-9.9c-2.73-2.73-7.17-2.73-9.9,0    c-4.71,4.71-12.39,4.71-17.1,0c-2.73-2.73-7.17-2.73-9.9,0c-2.73,2.73-2.73,7.17,0,9.9C354.01,219.96,360.56,222.68,367.53,222.68    z"/><path class="st1" d="M176.58,268.42c6.68,0,13.36-2.54,18.45-7.63c2.73-2.73,2.73-7.17,0-9.9c-2.73-2.73-7.17-2.73-9.9,0    c-4.71,4.71-12.39,4.71-17.1,0c-2.73-2.73-7.17-2.73-9.9,0c-2.73,2.73-2.73,7.17,0,9.9C163.22,265.87,169.9,268.42,176.58,268.42z    "/><path class="st1" d="M166.1,180.61c-4.71,4.71-12.39,4.71-17.1,0c-2.73-2.73-7.17-2.73-9.9,0c-2.73,2.73-2.73,7.17,0,9.9    c4.93,4.93,11.48,7.65,18.45,7.65s13.52-2.72,18.45-7.65c2.73-2.73,2.73-7.17,0-9.9C173.27,177.88,168.83,177.88,166.1,180.61z"/></g></g></svg>