<?xml version="1.0" encoding="iso-8859-1"?>
<!-- Generator: Adobe Illustrator 16.0.0, SVG Export Plug-In . SVG Version: 6.00 Build 0)  -->
<!DOCTYPE svg PUBLIC "-//W3C//DTD SVG 1.1//EN" "http://www.w3.org/Graphics/SVG/1.1/DTD/svg11.dtd">
<svg version="1.1" id="Capa_1" xmlns="http://www.w3.org/2000/svg" xmlns:xlink="http://www.w3.org/1999/xlink" x="0px" y="0px"
	 width="332.946px" height="332.946px" viewBox="0 0 332.946 332.946" style="enable-background:new 0 0 332.946 332.946;"
	 xml:space="preserve">
<g>
	<g>
		<path d="M81.005,164.84l26.799,4.516v6.521c0,1.699,0.7,3.326,1.937,4.485l10.772,10.13l-52.548,55.725l-13.012,0.864
			c-1.462,0.108-2.846,0.721-3.897,1.754l-19.924,19.527c-13.742,13.48-18.23,30.229-10.433,38.959
			c3.123,3.489,7.821,5.194,13.325,5.194c8.133,0,18.026-3.705,27.189-10.767l22.407-17.294c1.021-0.78,1.766-1.873,2.132-3.104
			l3.612-12.027l60.192-51.539l106.525,100.111c7.218,6.792,16.562,10.154,25.904,10.154c9.752,0,19.492-3.675,26.794-10.977
			l13.547-13.547c6.989-6.989,10.761-16.213,10.616-25.977c-0.156-9.764-4.209-18.867-11.421-25.641l-88.223-82.854l97.35-100.211
			c1.159-1.198,1.79-2.829,1.729-4.495c-0.054-1.672-0.793-3.246-2.041-4.365l-50.969-45.706c-2.42-2.173-6.113-2.083-8.432,0.205
			L170.75,113.499c-0.282,0.282-0.423,0.64-0.646,0.961l-3.672,0.33l-3.369-30.276c-0.192-43.94-36.689-79.617-81.614-79.617
			c-6.062,0-12.133,0.663-18.018,1.976c-4.807,1.068-8.301,4.26-9.581,8.755c-2.225,7.827,2.633,18.786,12.679,28.574l27.793,27.093
			L71.739,94.449l-29.195-29.49c-7.656-7.728-16.846-12.346-24.595-12.346c-7.5,0-13.139,4.18-15.084,11.178
			C0.967,70.628,0,77.719,0,84.859C0,128.79,36.29,164.555,81.005,164.84z M79.99,261.157c-0.897,0.769-1.549,1.777-1.891,2.906
			l-3.561,11.859l-20.84,16.074c-11.091,8.557-21.722,9.476-23.833,7.122c-2.06-2.306,0.117-12.412,9.875-21.978l18.3-17.942
			l13.147-0.877c1.549-0.102,3-0.78,4.062-1.915l54.223-57.496l11.061,10.395L79.99,261.157z M313.096,260.868
			c4.762,4.48,7.439,10.467,7.536,16.868c0.102,6.401-2.39,12.472-7.008,17.083l-13.541,13.559
			c-9.667,9.645-25.634,9.896-35.584,0.553L120.102,173.217v-6.335l43.496-39.479l6.747-0.616L313.096,260.868z M275.464,27.297
			l41.901,37.563l-93.038,95.771l-42.952-40.344L275.464,27.297z M14.715,67.094c0.333-1.186,0.799-2.177,3.234-2.177
			c3.338,0,9.493,2.282,15.858,8.701l33.591,33.936c1.156,1.168,2.723,1.826,4.365,1.826c0.006,0,0.012,0,0.024,0
			c1.648-0.006,3.225-0.67,4.38-1.858l31.249-32.036c1.135-1.162,1.768-2.735,1.744-4.371c-0.018-1.627-0.688-3.191-1.855-4.324
			L75.114,35.409c-8.292-8.088-10.094-15.065-9.013-16.531c5.017-1.117,10.184-1.678,15.426-1.678
			c38.172,0,69.238,30.357,69.238,67.671c0,0.225,0.012,0.453,0.036,0.676l3.727,33.474l-42.505,38.578l-29.474-4.981
			c-0.336-0.054-0.682-0.084-1.027-0.084c-38.172,0-69.229-30.363-69.229-67.674C12.298,78.836,13.109,72.855,14.715,67.094z"/>
		<path d="M281.121,302.134c14.052,0,25.49-11.434,25.49-25.484c0-14.058-11.433-25.484-25.49-25.484
			c-14.051,0-25.484,11.427-25.484,25.484C255.636,290.7,267.07,302.134,281.121,302.134z M281.121,263.463
			c7.278,0,13.192,5.921,13.192,13.192s-5.914,13.192-13.192,13.192c-7.271,0-13.187-5.921-13.187-13.192
			S273.855,263.463,281.121,263.463z"/>
		<path d="M283.126,43.081c-2.588-2.519-6.773-2.465-9.308,0.141l-73.522,75.727c-2.534,2.6-2.475,6.773,0.132,9.308
			c1.285,1.249,2.942,1.864,4.6,1.864c1.711,0,3.435-0.669,4.72-2l73.522-75.723C285.804,49.791,285.745,45.615,283.126,43.081z"/>
		<path d="M297.507,56.426c-2.6-2.528-6.767-2.468-9.313,0.141l-73.522,75.718c-2.54,2.612-2.474,6.788,0.132,9.313
			c1.273,1.243,2.931,1.864,4.588,1.864c1.718,0,3.435-0.67,4.726-2l73.517-75.723C300.18,63.134,300.12,58.963,297.507,56.426z"/>
	</g>
</g>
<g>
</g>
<g>
</g>
<g>
</g>
<g>
</g>
<g>
</g>
<g>
</g>
<g>
</g>
<g>
</g>
<g>
</g>
<g>
</g>
<g>
</g>
<g>
</g>
<g>
</g>
<g>
</g>
<g>
</g>
</svg>
